<?xml version="1.0" encoding="UTF-8"?>
<svg id="Layer_1" xmlns="http://www.w3.org/2000/svg" version="1.1" viewBox="0 0 500 500">
  <!-- Generator: Adobe Illustrator 30.2.0, SVG Export Plug-In . SVG Version: 2.1.1 Build 26)  -->
  <defs>
    <style>
      .st0 {
        fill: #c89d31;
      }
    </style>
  </defs>
  <path class="st0" d="M421.5,286.3L115.31,418.4c-13.23,5.71-28.58-.39-34.29-13.62L13.37,247.99c-5.71-13.23.39-28.58,13.62-34.29L333.18,81.6c6-2.59,12.76-2.83,18.93-.68l119.15,41.58c14.43,5.03,21.46,21.33,15.22,35.28l-51.51,115.21c-2.67,5.97-7.48,10.72-13.48,13.31ZM403.3,150.11c-10.54,4.55-15.39,16.77-10.85,27.31,4.55,10.54,16.77,15.39,27.31,10.85s15.39-16.77,10.85-27.31c-4.55-10.54-16.77-15.39-27.31-10.85ZM133.77,212.21l4.84,51.82c.08.86-.4,1.68-1.2,2.02l-47.79,20.62c-1.78.77-1.54,3.36.35,3.79l50.78,11.41c.85.19,1.47.9,1.55,1.77l4.84,51.82c.18,1.93,2.72,2.5,3.71.83l26.54-44.77c.44-.75,1.31-1.12,2.16-.93l50.78,11.41c1.89.42,3.22-1.82,1.94-3.27l-34.38-39.08c-.57-.65-.66-1.6-.22-2.34l26.54-44.77c.99-1.67-.73-3.62-2.51-2.86l-47.79,20.62c-.8.34-1.72.14-2.29-.52l-34.38-39.08c-1.28-1.45-3.67-.42-3.49,1.51Z"/>
</svg>