<?xml version="1.0" encoding="UTF-8"?>
<svg id="Layer_1" xmlns="http://www.w3.org/2000/svg" version="1.1" viewBox="0 0 500 500">
  <!-- Generator: Adobe Illustrator 30.2.0, SVG Export Plug-In . SVG Version: 2.1.1 Build 26)  -->
  <defs>
    <style>
      .st0 {
        fill: #c89d31;
      }
    </style>
  </defs>
  <path class="st0" d="M294.72,208.29l-27.43-118.09-27.61,118.05c-4,17.09-17.13,30.55-34.1,34.98l-123.93,32.34,121.95,26.61c18.01,3.93,32.09,17.96,36.08,35.95l27.34,123.09,27.52-123.05c4.02-17.98,18.13-31.99,36.14-35.9l121.99-26.43-123.88-32.52c-16.97-4.46-30.08-17.94-34.06-35.04Z"/>
  <path class="st0" d="M431.88,335.58h0s0,0,0,0c-12.62,53.94.16,43.63-57.1,58.58l-2.11.55h0c58.37,12.73,47.29,5.93,59.04,58.82l.09.4.09-.39c11.82-52.86.75-46.09,59.13-58.73h0s-2.11-.55-2.11-.55c-57.25-15.03-44.48-4.69-57.01-58.66Z"/>
  <path class="st0" d="M89.83,54.76h0s0,0,0,0c-17.23,73.64.22,59.57-77.96,79.97l-2.88.75h0c79.69,17.39,64.57,8.1,80.6,80.3l.12.54.12-.54c16.14-72.17,1.03-62.92,80.72-80.19h0s-2.88-.76-2.88-.76c-78.17-20.52-60.72-6.4-77.84-80.08Z"/>
</svg>