<?xml version="1.0" encoding="UTF-8"?>
<svg id="Layer_1" xmlns="http://www.w3.org/2000/svg" version="1.1" viewBox="0 0 500 500">
  <!-- Generator: Adobe Illustrator 30.2.0, SVG Export Plug-In . SVG Version: 2.1.1 Build 26)  -->
  <defs>
    <style>
      .st0 {
        fill: #c89d31;
      }
    </style>
  </defs>
  <path class="st0" d="M391.74,412.48c-3.66,3.44-15.43,16.31-15.61,8.97l-.37-14.59c-.02-.7-1.39-2.8-1.8-3.38-2.26-3.16-8.73,18.34-14.14,25.63-13.95,18.81-20.96,21.46-40.88,31.29-1.94.96-4.95,1.19-5.6-.07,3.16-4.31,4.34-24.34,1.05-21.93-4.48,3.29-4.36,13.53-21.9,26.59-5.01,3.73-10.04,7.63-15.49,10.16-10.59,4.92-31.71,13.19-42.78,10.9,2.19-12.45-.88-23.26-9.23-31.34l-13.2-12.77c-3.36-3.25-7.37-5.24-11.89-5.79-.64,5.65-1.31,10.62-.32,14.98l2.4,10.63c-50.94-16.73-53.33-53.28-59.09-58.77-3.67-3.5-3.85,19.85-3.96,21.37-5.27-3.86-10.76-7.6-14.9-12.13-15.34-16.78-22.6-32.99-23.48-56.02-.31-8.15,3.23-16.43,2.67-23.66-5.69,1.66-7.51,5.75-9.65,10.38l-2.83,6.13c-6.45-24.22,1.47-57.02,15.4-76.79l7.23-10.26,9-13.48c2.96-4.43,5.89-8.72,8.52-13.37l23.81-41.95c-.03,3.12.02,6.37-.24,9.24l-.94,10.38-1.12,12.39c-1.63,18.12-1.51,26.13,3.44,45.18-9.06-1.61-17.27-9.68-27.81-13.76-1.82,35.09,20.63,60.04,53.47,67.22,12.49,2.73,26.39,2.41,38.37-2.27,6.15-2.4,9.91-2.43,15.92.71,12.58,6.57,33.05,6.11,46.02-.95,2.35-1.28,4.97-2.54,7.85-1.45,27.94,10.52,56.9,5.95,79.11-14.04,7.28-6.56,12.14-13.85,15.1-23.35,2.65-8.48,5.31-16.57,2.68-25.98-11.48,4.37-18.05,13.22-27.03,13.73,7.28-22.49,3.8-49.2,1.22-71.79-.13-1.12.23-3.95.44-5.73,11.9,23.91,25.71,46.51,40.92,69.02,7.11,10.52,13.67,20.72,18.33,32.34,4.91,12.24,8.65,31.27,6.5,44.01l-1.92,11.33c-.8-3.52-9.81-20.74-12.5-16.29-1.84,3.05,1.99,7.92,2.2,11.08,1.06,16.09,1.05,27.63-5.53,42.59-4.25,9.67-9.69,18.3-17.48,25.64Z"/>
  <path class="st0" d="M180.44,74.58c-12.44,9.3-19.61,22.63-26.96,35.97-16.74,10.56-21.82,28.36-20.01,47.74,1.02,10.89,2.96,20.95,7.93,30.85,2.88,5.74-4.96,10.25-10.54,20.61l-12.27,22.8-19.84-2.78,1.11-38.15c1.02-35.04,12.56-103.42,40.16-127.47,18.73-16.32,28.32-21.04,50.67-31.26,9.53-4.36,19.57-7.06,29.55-10.93,7.7-2.99,26.45-6.59,35.42-7.93,16.1-2.41,37.84,4.33,49.76,14.24,9.36,7.78,17.43,16.15,24.73,25.87l16.4,21.84,14.03,21.97c1.67,2.62,2.91,4.26,3.33,7.26l-21.82-7.31c-14.69-4.92-30.01-8.59-45.59-10.01l-9.46-.86-12.43-1.08c-8.04-.7-16.43-.64-24.48.05l-11.45.99-17.33,2.26c-13.18,1.72-25.47,5.27-37.95,9.36l-9.3,3.05c-2.97.97-5.34,1.76-8.2,2.34,2-13.19,10.56-18.81,14.55-29.42Z"/>
  <path class="st0" d="M329.69,161.85c-23.26-8.21-54.88-12.33-79.63-10.37-39.85,3.15-68.33,12.33-101.33,36.52-9.01-17.1-12.86-40.2-3.89-59.51,9.42-16.83,54.99-28.53,72.74-31.27l18.89-2.92c10-1.55,36.44-1.25,47.02-.68,24.7,1.33,51.73,7.98,74.55,17.44,15.4,6.39,25.53,13.45,28.47,31.22,2.03,12.22-.22,24.52-3.45,36.38-1.11,4.07-2.54,7.5-6.21,10.23-14.39-11.79-29.51-20.8-47.17-27.04Z"/>
  <path class="st0" d="M215.62,315.99c-7.61,1.97-14.41,2.04-21.46,2.2-8.84.2-16.86-1.25-24.7-5.49-6.41-3.46-13.21-7.22-18.37-12.15-6.89-6.58-18.23-24.47-14.6-31.5,14.56,8.55,27.09,14.59,43.12,9.18,21.94-7.41,34.51-21.63,51.63-21.99,9.93-.21,18.3,1.63,25.33,9.9,3.17-1.69,5.96-3.5,9.02-5.48,9.66-6.25,21.73-5.67,32.38-1.47,16.57,6.53,17.76,11.4,32.47,17.07,20.98,8.08,31.41,3.52,49.73-8-1.13,12.75-7.03,24.64-15.91,32.62-24.76,22.23-57.18,21.58-85.48,6.96-6.33-3.27-12.2-7.41-17.09-12.76-.75-.82-3.03-2.34-3.94-1.88s-2.43,1.52-3.53,2.4l-7.49,6c-8.75,7.01-19.78,11.43-31.13,14.38Z"/>
  <path class="st0" d="M102.78,265.2c-4.25,6.21-7.38,12.8-10.79,19.51l-5.55,10.91c-6.56-5.64-12.54-12.84-13.73-21.74-2.67-19.97,12.84-36.28,32.57-36.08,5.03.05,9.71.44,12.97,4.83l-15.46,22.58Z"/>
</svg>