<?xml version="1.0" encoding="UTF-8"?>
<svg id="Layer_2" data-name="Layer 2" xmlns="http://www.w3.org/2000/svg" viewBox="0 0 151.32 27.25">
  <defs>
    <style>
      .cls-1 {
        fill: #f7d8a6;
      }
    </style>
  </defs>
  <g id="Layer_1-2" data-name="Layer 1">
    <g>
      <path class="cls-1" d="M94.68,16.86c-.26-.15-.55.23-.33.44.98,1.21,2.85,2.91,1.34,4.24-1.07.87-2.62,1.36-4.1,1.75l-3.13-2.53c3.1-1.62,3.87-5.48,1.5-8.49-2.24-2.85-4.82-8.36-4.02-9.01.91-.73.61,2.57,2.49,1.63,1.9-.96-1.84-5.35-3.82-2.3-2.68,6.61-.01,10.95-2.73,11.2-12.65,1.18-15.38-15.23-26.92-13.69-.96.13-3.07,1.04-3.9,2.25-.13.17-.87,1.1-.87,1.61,0,.34.2.41.38.37,8.61-1.96,7.81,16.43,17.75,17.03.03,0,.06,0,.1,0l-3.69,4.09c-2.93-.19-5.91-.43-8.64-1.5-.92-.4-1.87-.98-2.09-1.93-.02-.11-.12-.18-.23-.16-.11.02-.19.12-.17.24.83,3.55,8.6,4.15,11.66,4.58,4.27.44,8.54.57,12.83.57,4.29-.05,8.62-.15,12.91-1.2,2.26-.63,4.48-1.22,6.22-3.08,2.16-2.49-.2-5.08-2.52-6.11ZM90.39,23.59c-1.99.46-4.05.79-6.12,1.08-6.18.87-12.49,1.06-18.72.83l3.69-4.08c13.45.78,15.65.28,17.39-.02.42-.08.8-.2,1.17-.34l3.01,2.43c-.14.03-.28.07-.41.1Z"/>
      <path class="cls-1" d="M150.97,16.04c-.34-.19-.75-.05-.92.29-.2.4-.44.78-.74,1.12-.54.61-1.21,1.12-1.96,1.42l-.27.11c-.1.04-.22.06-.32.09l-.16.05-.08.02s-.04,0-.05,0l-.31.06c-.1.02-.2.03-.31.04l-.31.03c-.21,0-.42,0-.63,0-.83-.06-1.67-.27-2.46-.63-.79-.35-1.54-.82-2.25-1.35-.7-.53-1.36-1.14-1.99-1.78-1.27-1.28-2.46-2.68-3.89-3.88-.71-.6-1.46-1.14-2.31-1.58-.21-.11-.41-.19-.62-.29-.24-.1-.45-.16-.68-.25-.22-.08-.46-.12-.69-.18-.11-.03-.23-.05-.35-.06l-.35-.05c-1.37-.15-2.77.11-4,.71-.22-.52-.46-1.03-.76-1.51-.47-.77-1.06-1.48-1.79-2.06-.73-.56-1.6-.99-2.52-1.15-.11-.03-.23-.04-.34-.06-.12-.01-.23-.03-.35-.04l-.36-.02c-.12,0-.21,0-.32,0-.47.01-.9.07-1.35.15-.89.17-1.75.52-2.52,1-.77.47-1.43,1.09-2,1.77-.26.31-.49.64-.7.97-.12-.05-.25-.1-.37-.15-.68-.24-1.4-.36-2.11-.35-.09,0-.18,0-.26,0l-.26.03-.26.03-.27.05-.27.05c-.08.02-.15.04-.22.06l-.22.06-.05.02s-.09.03-.09.03l-.12.05c-.65.24-1.24.6-1.74,1.04-.5.43-.91.94-1.25,1.47-.33.53-.59,1.09-.79,1.66-.39,1.13-.54,2.28-.51,3.39.02.55.09,1.09.2,1.62.03.13.06.27.1.4.04.13.07.24.11.36.1.28.19.51.32.75.25.47.57.91.98,1.26.4.35.89.6,1.4.7.12.03.27.04.4.06h.16s.08,0,.08,0c0,0,.07,0,.07,0h.05c.26-.01.5-.07.74-.14.47-.16.88-.43,1.19-.78.31-.35.53-.77.61-1.21.01-.11.04-.21.04-.33,0-.11,0-.24,0-.32v-.14s-.02-.05-.02-.06v-.04s-.03-.08-.03-.08l-.04-.16c-.02-.05-.04-.1-.06-.15-.33-.79-1.05-1.26-1.76-1.35-.36-.04-.72.01-1.02.16-.07.04-.15.08-.22.12-.07.05-.14.11-.2.16-.04.03-.06.05-.08.08l-.07.08-.07.08s-.03.03-.03.03l-.02.02-.03.05c-.04.06-.08.13-.12.19-.04.06-.06.14-.08.2-.06.13-.07.27-.1.41,0,.07,0,.14,0,.2v.1s.02.1.02.1c.01.06.02.13.04.19.02.06.04.12.06.17.18.45.53.74.86.88.33.14.66.14.88.07.12-.02.22-.08.3-.11.09-.03.14-.08.19-.11.09-.06.14-.1.14-.1l-.1-.16s-.05.03-.15.09c-.05.03-.11.07-.18.09-.07.02-.15.07-.25.07-.2.05-.46.02-.72-.11-.26-.13-.52-.38-.63-.75-.01-.04-.03-.09-.04-.14,0-.05-.01-.1-.02-.14v-.07s0-.07,0-.07c0-.05,0-.1,0-.15.03-.1.04-.2.09-.3.02-.05.04-.1.07-.15.03-.05.06-.09.1-.14l.02-.04v-.02s.01,0,.02,0l.07-.07.07-.07s.05-.05.07-.06c.04-.03.09-.06.13-.09.05-.03.11-.05.16-.08.22-.09.47-.11.73-.07.51.09,1.03.48,1.22,1.03.09.26.1.6.03.89-.07.3-.24.59-.47.83-.24.23-.54.41-.87.51-.17.04-.34.07-.52.07h-.03s0,0-.02,0h-.08s-.16-.02-.16-.02c-.09-.02-.16-.02-.25-.05-.71-.17-1.32-.76-1.68-1.53-.09-.19-.17-.41-.23-.6-.03-.12-.07-.24-.09-.35-.02-.11-.05-.21-.07-.33-.08-.46-.12-.94-.12-1.42,0-.97.17-1.99.53-2.95.36-.96.94-1.88,1.74-2.53.4-.33.86-.59,1.35-.75l.09-.03s0,0,.02,0h.06s.22-.07.22-.07c.07-.02.15-.04.22-.06l.19-.03.19-.03.2-.02.2-.02c.07,0,.13,0,.2,0,.6,0,1.2.13,1.78.37-.71,1.55-1.09,3.19-1.21,4.83-.06.83-.05,1.65.03,2.47.02.2.05.42.08.63.02.13.04.24.06.36.08.43.26,1.13.42,1.53.15.38.35.76.6,1.12.27.38.61.74,1.06,1,.11.07.23.12.35.18.13.05.28.1.42.14l.14.03.19.04c.13.01.26.02.39.02.53,0,1.07-.18,1.49-.47.42-.28.74-.63.99-.99.25-.37.44-.75.59-1.14l.1-.3.09-.32.07-.29.05-.3c.07-.4.09-.8.1-1.19-.01-1.58-.43-3.06-1.08-4.38-.66-1.32-1.57-2.49-2.73-3.36-.08-.06-.15-.11-.23-.16.17-.27.34-.54.53-.79.46-.59.99-1.12,1.61-1.53.62-.41,1.31-.72,2.05-.9.19-.03.37-.08.56-.11l.29-.04.12-.02h.16c.1-.01.22-.02.31-.02h.27c.09,0,.19.02.28.02.09,0,.19.02.28.03.74.1,1.45.41,2.08.86.62.46,1.17,1.05,1.61,1.73.3.45.55.95.78,1.45-.16.11-.32.21-.47.33-.74.58-1.35,1.29-1.82,2.11l-.17.31c-.03.05-.06.1-.08.16l-.06.16-.13.31-.06.15s-.03.07-.04.1l-.03.09c-.16.53-.21,1.07-.2,1.61,0,.44.06.88.17,1.3s.27.84.56,1.21c.15.2.35.38.57.52.23.14.49.22.75.25.26.03.51,0,.77-.05l.16-.04s.04,0,.09-.03l.09-.04c.12-.05.25-.09.35-.17.46-.27.77-.71.96-1.15.2-.44.3-.9.37-1.36.06-.46.08-.91.07-1.37,0-.12,0-.22-.01-.33l-.03-.34c-.02-.22-.04-.44-.08-.67-.14-1.02-.38-2.04-.73-3.01,1.15-.56,2.45-.81,3.72-.65l.32.05c.11.01.21.03.32.06.21.06.42.1.63.17.2.08.41.15.6.23.2.1.42.19.61.3.76.41,1.48.94,2.15,1.53,1.33,1.19,2.47,2.6,3.73,3.95.63.68,1.3,1.33,2.03,1.92.74.59,1.53,1.11,2.4,1.53.86.42,1.81.71,2.79.81.25.03.49.03.74.03l.37-.02c.12,0,.25-.01.37-.03l.37-.05s.03,0,.12-.02l.08-.02.17-.04c.11-.03.22-.05.34-.09l.37-.13c1.49-.55,2.72-1.66,3.47-3.04.17-.32.07-.72-.25-.9,0,0,0,0-.01,0ZM115.17,13.93c.55,1.14.88,2.42.88,3.69-.01.32-.03.63-.08.94l-.04.23-.06.24-.06.2-.08.22c-.22.57-.58,1.09-.98,1.35-.2.13-.39.19-.61.19-.05,0-.1,0-.15-.01-.01,0-.03,0-.03,0h-.07s-.14-.04-.14-.04c-.03-.02-.06-.03-.11-.04-.05-.03-.1-.05-.15-.08-.4-.24-.76-.76-1-1.37-.12-.3-.21-.63-.28-.96-.03-.15-.07-.38-.09-.54-.02-.17-.05-.34-.07-.52-.08-.72-.09-1.46-.05-2.2.07-1.41.38-2.83.93-4.16.93.73,1.69,1.74,2.23,2.87ZM125.57,14.22l.04.31c0,.11.02.22.03.32.03.41.02.83-.03,1.24-.05.41-.14.81-.29,1.18-.15.36-.38.67-.68.86-.07.06-.16.08-.24.12l-.06.03s-.04.01-.06.02l-.16.04c-.17.04-.36.06-.55.04-.36-.03-.68-.21-.91-.52-.24-.3-.39-.69-.48-1.09-.09-.4-.14-.83-.13-1.25,0-.42.06-.85.17-1.24l.02-.07s0-.02.02-.06l.06-.16.12-.31.06-.16c.02-.05.05-.09.07-.14l.15-.28c.41-.74.99-1.41,1.67-1.93.11-.09.23-.16.35-.24.33.85.58,1.75.74,2.66.04.21.07.42.09.63Z"/>
      <path class="cls-1" d="M.33,16.04c-.32.18-.43.58-.25.9.75,1.38,1.98,2.49,3.47,3.04l.37.13c.12.04.22.06.34.09l.17.04.08.02c.09.02.08.01.12.02l.37.05c.12.02.25.03.37.03l.37.02c.25,0,.5,0,.74-.03.98-.1,1.93-.39,2.79-.81.87-.42,1.66-.94,2.4-1.53.74-.59,1.4-1.25,2.03-1.92,1.26-1.35,2.39-2.76,3.73-3.95.66-.59,1.39-1.12,2.15-1.53.19-.11.41-.2.61-.3.18-.08.4-.15.6-.23.2-.07.42-.11.63-.17.1-.03.21-.05.32-.06l.32-.05c1.27-.15,2.58.09,3.72.65-.35.97-.59,1.99-.73,3.01-.03.22-.05.44-.08.67l-.03.34c0,.11-.01.21-.01.33,0,.46.01.91.07,1.37.07.46.17.92.37,1.36.2.44.51.87.96,1.15.11.08.23.12.35.17l.09.04c.06.02.06.02.09.03l.16.04c.26.05.51.07.77.05.26-.03.52-.11.75-.25.23-.14.42-.32.57-.52.28-.37.45-.79.56-1.21s.16-.86.17-1.3c0-.54-.05-1.08-.2-1.61l-.03-.09s-.03-.08-.04-.1l-.06-.15-.13-.31-.06-.16c-.02-.05-.05-.1-.08-.16l-.17-.31c-.47-.82-1.08-1.53-1.82-2.11-.15-.12-.31-.23-.47-.33.23-.51.47-1,.78-1.45.44-.68.99-1.27,1.61-1.73.63-.44,1.33-.75,2.08-.86.09-.02.18-.03.28-.03.09,0,.19-.02.28-.02h.27c.09,0,.21,0,.31,0h.16s.12.03.12.03l.29.04c.19.02.37.07.56.11.74.18,1.43.49,2.05.9.62.41,1.16.94,1.61,1.53.2.25.37.52.53.79-.08.05-.16.11-.23.16-1.15.88-2.07,2.05-2.73,3.36-.65,1.32-1.06,2.81-1.08,4.38,0,.39.03.79.1,1.19l.05.3.07.29.09.32.1.3c.15.39.34.77.59,1.14.25.36.57.71.99.99.41.28.95.46,1.49.47.13,0,.26-.01.39-.02l.19-.04.14-.03c.14-.04.29-.09.42-.14.12-.06.24-.11.35-.18.44-.27.79-.63,1.06-1,.26-.36.45-.74.6-1.12.16-.41.35-1.1.42-1.53.02-.12.04-.23.06-.36.03-.21.06-.42.08-.63.08-.82.1-1.64.03-2.47-.12-1.64-.5-3.28-1.21-4.83.57-.24,1.18-.37,1.78-.37.07,0,.14,0,.2,0l.2.02.2.02.19.03.19.03c.07.01.15.04.22.06l.22.06h.06s-.02,0,.02.02l.09.03c.5.17.95.43,1.35.75.81.66,1.38,1.57,1.74,2.53.36.96.53,1.98.53,2.95,0,.49-.04.96-.12,1.42-.02.12-.05.22-.07.33-.02.11-.06.24-.09.35-.06.19-.13.41-.23.6-.36.77-.97,1.37-1.68,1.53-.09.03-.16.03-.25.05h-.16s-.08.02-.08.02c-.02,0,.01,0-.02,0h-.03c-.18,0-.35-.03-.52-.07-.33-.09-.64-.28-.87-.51-.23-.24-.4-.52-.47-.83-.07-.29-.06-.63.03-.89.19-.55.71-.94,1.22-1.03.26-.05.51-.02.73.07.05.03.11.05.16.08.04.03.09.06.13.09.02.01.05.03.07.06l.07.07.07.07s0,0,0,0v.02s.04.04.04.04c.03.05.07.09.1.14.03.05.05.1.07.15.06.1.06.2.09.3,0,.05,0,.1,0,.15v.07s0,.07,0,.07c0,.05-.01.1-.02.14-.01.05-.03.09-.04.14-.11.36-.38.62-.63.75-.26.13-.52.16-.72.11-.1,0-.18-.05-.25-.07-.07-.02-.13-.06-.18-.09-.1-.06-.15-.09-.15-.09l-.1.16s.05.03.14.1c.05.03.1.08.19.11.09.03.18.09.3.11.23.07.55.06.88-.07.33-.14.68-.43.86-.88.02-.06.04-.11.06-.17.01-.06.02-.12.04-.19l.02-.1v-.1c0-.07,0-.13,0-.2-.03-.13-.04-.28-.1-.41-.03-.07-.05-.14-.08-.2-.04-.06-.08-.13-.12-.19l-.03-.05-.02-.02s-.03-.04-.03-.03l-.07-.08-.07-.08s-.04-.05-.08-.08c-.06-.05-.13-.11-.2-.16-.07-.04-.14-.08-.22-.12-.3-.15-.66-.2-1.02-.16-.71.09-1.43.55-1.76,1.35-.02.05-.04.1-.06.15l-.04.16-.02.08v.04s-.02.06-.02.06v.14c-.03.08-.02.21-.02.32,0,.12.02.22.04.33.08.44.3.86.61,1.21.31.34.72.62,1.19.78.24.07.48.13.74.14h.05s.06,0,.07,0h.08s.16,0,.16,0c.13-.02.28-.03.4-.06.51-.1,1-.35,1.4-.7.41-.34.73-.78.98-1.26.13-.24.22-.48.32-.75.04-.12.07-.23.11-.36.03-.13.07-.27.1-.4.12-.52.18-1.06.2-1.62.03-1.1-.12-2.25-.51-3.39-.2-.56-.45-1.12-.79-1.66-.34-.53-.75-1.04-1.25-1.47-.5-.43-1.09-.8-1.74-1.04l-.12-.05s-.08-.03-.09-.03l-.05-.02-.22-.06c-.08-.02-.14-.04-.22-.06l-.27-.05-.27-.05-.26-.03-.26-.03c-.09,0-.18,0-.26,0-.71-.01-1.43.11-2.11.35-.13.04-.25.1-.37.15-.21-.33-.45-.66-.7-.97-.56-.68-1.22-1.3-2-1.77-.77-.48-1.63-.82-2.52-1-.45-.08-.89-.14-1.35-.15-.11,0-.2,0-.32,0l-.36.02c-.12,0-.23.03-.35.04-.12.01-.23.03-.34.06-.92.17-1.79.59-2.52,1.15-.73.58-1.32,1.29-1.79,2.06-.3.49-.54.99-.76,1.51-1.23-.6-2.62-.86-4-.71l-.35.05c-.12.01-.23.03-.35.06-.23.06-.46.1-.69.18-.23.08-.44.15-.68.25-.21.1-.41.18-.62.29-.85.44-1.6.98-2.31,1.58-1.42,1.2-2.62,2.6-3.89,3.88-.63.64-1.29,1.25-1.99,1.78-.71.53-1.46.99-2.25,1.35-.79.35-1.63.57-2.46.63-.21.02-.42,0-.63,0l-.31-.03c-.1,0-.21-.02-.31-.04l-.31-.06s-.08-.02-.05,0l-.08-.02-.16-.05c-.11-.03-.23-.06-.32-.09l-.27-.11c-.75-.29-1.43-.81-1.96-1.42-.3-.34-.55-.72-.74-1.12-.17-.35-.58-.48-.92-.29,0,0,0,0-.01,0ZM38.38,11.05c.55,1.32.86,2.75.93,4.16.04.74.03,1.48-.05,2.2-.01.18-.05.35-.07.52-.02.17-.07.39-.09.54-.07.33-.16.66-.28.96-.24.61-.6,1.14-1,1.37-.05.03-.1.05-.15.08-.04.01-.07.02-.11.04l-.14.03h-.07s-.01.02-.03.02c-.05,0-.1,0-.15.01-.21,0-.41-.06-.61-.19-.4-.26-.76-.78-.98-1.35l-.08-.22-.06-.2-.06-.24-.04-.23c-.06-.31-.07-.63-.08-.94,0-1.28.33-2.56.88-3.69.55-1.14,1.31-2.15,2.23-2.87ZM25.84,13.59c.16-.91.41-1.81.74-2.66.12.08.24.16.35.24.68.53,1.26,1.19,1.67,1.93l.15.28s.05.09.07.14l.06.16.12.31.06.16s.01.03.02.06l.02.07c.11.39.16.82.17,1.24,0,.42-.04.85-.13,1.25-.1.4-.25.79-.48,1.09-.23.3-.55.48-.91.52-.18.01-.37,0-.55-.04l-.16-.04s-.07-.02-.06-.02l-.06-.03c-.08-.03-.17-.06-.24-.12-.3-.19-.53-.5-.68-.86-.15-.36-.24-.77-.29-1.18-.05-.41-.06-.83-.03-1.24,0-.1.02-.21.03-.32l.04-.31c.03-.21.06-.42.09-.63Z"/>
    </g>
  </g>
</svg>