<?xml version="1.0" encoding="UTF-8"?>
<svg id="Layer_1" data-name="Layer 1" xmlns="http://www.w3.org/2000/svg" viewBox="0 0 500 500" fill="currentColor">
  <defs>
    </defs>
  <path d="M397.01,219.56h-238.26l-11.36-73.85c-3.62-23.57,2.18-47.15,16.34-66.4,14.18-19.27,35.03-31.88,58.72-35.53,23.69-3.64,47.37,2.13,66.68,16.24,19.29,14.1,31.91,34.85,35.54,58.42l40.52-6.23c-5.29-34.42-23.71-64.71-51.86-85.29C290.72,10.38,263.97,1.71,236.42,1.71c-6.7,0-13.44.51-20.19,1.55-34.49,5.3-64.86,23.68-85.51,51.75-20.67,28.09-29.14,62.51-23.85,96.93l10.4,67.62h-14.28c-24.26,0-43.92,19.66-43.92,43.92v192.6c0,24.26,19.66,43.92,43.92,43.92h294.02c24.26,0,43.92-19.66,43.92-43.92v-192.6c0-24.26-19.66-43.92-43.92-43.92Z"/>
</svg>